<?xml version='1.0' encoding='utf-8'?>
<svg width="10.05in" height="8.05in" viewBox="-5.025 -4.025 10.05 8.05" version="1.1" xmlns="http://www.w3.org/2000/svg">
  <g transform="scale(1,-1)" stroke-linecap="round">
    <g fill="rgb(255,255,255)" stroke="rgb(0,0,0)" stroke-width="0.003543307086614173" id="bg">
      <path d="M -4.875,3.875 L -4.875,-3.875 L 4.875,-3.875 L 4.875,3.875 L -4.875,3.875" />
      <line x1="-4.875" y1="-3.875" x2="-4.875" y2="3.875" />
      <line x1="-4.875" y1="-3.875" x2="4.875" y2="-3.875" />
      <line x1="4.875" y1="-3.875" x2="4.875" y2="3.875" />
      <line x1="-4.875" y1="3.875" x2="4.875" y2="3.875" />
    </g>
    <g fill="none" stroke="rgb(0,0,0)" stroke-width="0.005905511811023622" id="center-lines" stroke-dasharray="0.1875 0.0375 0.0375 0.0375">
      <line x1="2.925" y1="2.325" x2="4.875" y2="2.325" />
      <line x1="-2.925" y1="3.875" x2="-2.925" y2="2.325" />
      <line x1="-2.925" y1="2.325" x2="-2.925" y2="0.775" />
      <line x1="-2.925" y1="0.775" x2="-2.925" y2="-0.775" />
      <line x1="-2.925" y1="-0.775" x2="-2.925" y2="-2.325" />
      <line x1="-2.925" y1="-2.325" x2="-2.925" y2="-3.875" />
      <line x1="-0.975" y1="3.875" x2="-0.975" y2="2.325" />
      <line x1="-0.975" y1="2.325" x2="-0.975" y2="0.775" />
      <line x1="-0.975" y1="0.775" x2="-0.975" y2="-0.775" />
      <line x1="-0.975" y1="-0.775" x2="-0.975" y2="-2.325" />
      <line x1="-0.975" y1="-2.325" x2="-0.975" y2="-3.875" />
      <line x1="0.975" y1="3.875" x2="0.975" y2="2.325" />
      <line x1="0.975" y1="2.325" x2="0.975" y2="0.775" />
      <line x1="0.975" y1="0.775" x2="0.975" y2="-0.775" />
      <line x1="0.975" y1="-0.775" x2="0.975" y2="-2.325" />
      <line x1="0.975" y1="-2.325" x2="0.975" y2="-3.875" />
      <line x1="2.925" y1="3.875" x2="2.925" y2="2.325" />
      <line x1="2.925" y1="2.325" x2="2.925" y2="0.775" />
      <line x1="2.925" y1="0.775" x2="2.925" y2="-0.775" />
      <line x1="2.925" y1="-0.775" x2="2.925" y2="-2.325" />
      <line x1="2.925" y1="-2.325" x2="2.925" y2="-3.875" />
      <line x1="-4.875" y1="-2.325" x2="-2.925" y2="-2.325" />
      <line x1="-2.925" y1="-2.325" x2="-0.975" y2="-2.325" />
      <line x1="-0.975" y1="-2.325" x2="0.975" y2="-2.325" />
      <line x1="0.975" y1="-2.325" x2="2.925" y2="-2.325" />
      <line x1="2.925" y1="-2.325" x2="4.875" y2="-2.325" />
      <line x1="-4.875" y1="-0.775" x2="-2.925" y2="-0.775" />
      <line x1="-2.925" y1="-0.775" x2="-0.975" y2="-0.775" />
      <line x1="-0.975" y1="-0.775" x2="0.975" y2="-0.775" />
      <line x1="0.975" y1="-0.775" x2="2.925" y2="-0.775" />
      <line x1="2.925" y1="-0.775" x2="4.875" y2="-0.775" />
      <line x1="-4.875" y1="0.775" x2="-2.925" y2="0.775" />
      <line x1="-2.925" y1="0.775" x2="-0.975" y2="0.775" />
      <line x1="-0.975" y1="0.775" x2="0.975" y2="0.775" />
      <line x1="0.975" y1="0.775" x2="2.925" y2="0.775" />
      <line x1="2.925" y1="0.775" x2="4.875" y2="0.775" />
      <line x1="-4.875" y1="2.325" x2="-2.925" y2="2.325" />
      <line x1="-2.925" y1="2.325" x2="-0.975" y2="2.325" />
      <line x1="-0.975" y1="2.325" x2="0.975" y2="2.325" />
      <line x1="0.975" y1="2.325" x2="2.925" y2="2.325" />
    </g>
    <g fill="none" stroke="rgb(0,0,0)" stroke-width="0.011811023622047244" id="left-offset" stroke-dasharray="0.15 0.075">
      <line x1="2.4375" y1="3.875" x2="2.4375" y2="-3.875" />
      <line x1="-3.4125" y1="3.875" x2="-3.4125" y2="-3.875" />
      <line x1="-1.4625" y1="3.875" x2="-1.4625" y2="-3.875" />
      <line x1="0.4875" y1="3.875" x2="0.4875" y2="-3.875" />
    </g>
    <g fill="none" stroke="rgb(0,0,0)" stroke-width="0.011811023622047244" id="right-offset" stroke-dasharray="0.0003 0.03765">
      <line x1="3.4125" y1="3.875" x2="3.4125" y2="-3.875" />
      <line x1="-2.4375" y1="3.875" x2="-2.4375" y2="-3.875" />
      <line x1="-0.4875" y1="3.875" x2="-0.4875" y2="-3.875" />
      <line x1="1.4625" y1="3.875" x2="1.4625" y2="-3.875" />
    </g>
  </g>
</svg>